<svg width="358" height="268" viewBox="0 0 358 268" fill="none" xmlns="http://www.w3.org/2000/svg">
<g filter="url(#filter0_d_32_854)">
<rect x="44" y="10" width="270" height="180" rx="10" fill="white"/>
<path d="M184 82H194V104.5H199V79.5C199 78.1183 197.882 77 196.5 77H181.5C180.118 77 179 78.1183 179 79.5V104.5H184V82Z" fill="#2AA7FF"/>
<path d="M206.5 57H194V62H204V102H154V62H164V57H151.5C150.118 57 149 58.1183 149 59.5V104.5C149 105.882 150.118 107 151.5 107H206.5C207.882 107 209 105.882 209 104.5V59.5C209 58.1183 207.882 57 206.5 57Z" fill="#2AA7FF"/>
<path d="M164 57H149V52H164V47H146.5C145.118 47 144 48.1183 144 49.5V59.5C144 60.8818 145.118 62 146.5 62H164V57Z" fill="#2AA7FF"/>
<path d="M211.5 47H194V52H209V57H194V62H211.5C212.882 62 214 60.8818 214 59.5V49.5C214 48.1183 212.882 47 211.5 47Z" fill="#2AA7FF"/>
<path d="M194 72H164C162.618 72 161.5 70.8817 161.5 69.5V39.5C161.5 38.1183 162.618 37 164 37H194C195.382 37 196.5 38.1183 196.5 39.5V69.5C196.5 70.8817 195.382 72 194 72ZM166.5 67H191.5V42H166.5V67Z" fill="#2AA7FF"/>
<path d="M184 52H181.5V49.5C181.5 48.1183 180.382 47 179 47C177.618 47 176.5 48.1183 176.5 49.5V52H174C172.618 52 171.5 53.1182 171.5 54.5C171.5 55.8818 172.618 57 174 57H176.5V59.5C176.5 60.8818 177.618 62 179 62C180.382 62 181.5 60.8818 181.5 59.5V57H184C185.382 57 186.5 55.8818 186.5 54.5C186.5 53.1182 185.382 52 184 52Z" fill="#2AA7FF"/>
<path d="M171.5 92H161.5C160.118 92 159 90.8818 159 89.5V84.5C159 80.3643 162.364 77 166.5 77C170.636 77 174 80.3643 174 84.5V89.5C174 90.8818 172.882 92 171.5 92ZM164 87H169V84.5C169 83.1205 167.88 82 166.5 82C165.121 82 164 83.1205 164 84.5V87Z" fill="#2AA7FF"/>
<path d="M144.085 139.49C145.417 139.49 146.581 139.748 147.577 140.264C148.585 140.768 149.359 141.5 149.899 142.46C150.451 143.408 150.727 144.518 150.727 145.79C150.727 147.062 150.451 148.166 149.899 149.102C149.359 150.038 148.585 150.758 147.577 151.262C146.581 151.754 145.417 152 144.085 152H139.999V139.49H144.085ZM144.085 150.326C145.549 150.326 146.671 149.93 147.451 149.138C148.231 148.346 148.621 147.23 148.621 145.79C148.621 144.338 148.231 143.204 147.451 142.388C146.671 141.572 145.549 141.164 144.085 141.164H142.051V150.326H144.085ZM161.851 146.798C161.851 147.17 161.827 147.506 161.779 147.806H154.201C154.261 148.598 154.555 149.234 155.083 149.714C155.611 150.194 156.259 150.434 157.027 150.434C158.131 150.434 158.911 149.972 159.367 149.048H161.581C161.281 149.96 160.735 150.71 159.943 151.298C159.163 151.874 158.191 152.162 157.027 152.162C156.079 152.162 155.227 151.952 154.471 151.532C153.727 151.1 153.139 150.5 152.707 149.732C152.287 148.952 152.077 148.052 152.077 147.032C152.077 146.012 152.281 145.118 152.689 144.35C153.109 143.57 153.691 142.97 154.435 142.55C155.191 142.13 156.055 141.92 157.027 141.92C157.963 141.92 158.797 142.124 159.529 142.532C160.261 142.94 160.831 143.516 161.239 144.26C161.647 144.992 161.851 145.838 161.851 146.798ZM159.709 146.15C159.697 145.394 159.427 144.788 158.899 144.332C158.371 143.876 157.717 143.648 156.937 143.648C156.229 143.648 155.623 143.876 155.119 144.332C154.615 144.776 154.315 145.382 154.219 146.15H159.709ZM168.875 141.92C169.655 141.92 170.351 142.082 170.963 142.406C171.587 142.73 172.073 143.21 172.421 143.846C172.769 144.482 172.943 145.25 172.943 146.15V152H170.909V146.456C170.909 145.568 170.687 144.89 170.243 144.422C169.799 143.942 169.193 143.702 168.425 143.702C167.657 143.702 167.045 143.942 166.589 144.422C166.145 144.89 165.923 145.568 165.923 146.456V152H163.871V142.082H165.923V143.216C166.259 142.808 166.685 142.49 167.201 142.262C167.729 142.034 168.287 141.92 168.875 141.92ZM177.954 143.756V149.246C177.954 149.618 178.038 149.888 178.206 150.056C178.386 150.212 178.686 150.29 179.106 150.29H180.366V152H178.746C177.822 152 177.114 151.784 176.622 151.352C176.13 150.92 175.884 150.218 175.884 149.246V143.756H174.714V142.082H175.884V139.616H177.954V142.082H180.366V143.756H177.954ZM183.301 140.768C182.929 140.768 182.617 140.642 182.365 140.39C182.113 140.138 181.987 139.826 181.987 139.454C181.987 139.082 182.113 138.77 182.365 138.518C182.617 138.266 182.929 138.14 183.301 138.14C183.661 138.14 183.967 138.266 184.219 138.518C184.471 138.77 184.597 139.082 184.597 139.454C184.597 139.826 184.471 140.138 184.219 140.39C183.967 140.642 183.661 140.768 183.301 140.768ZM184.309 142.082V152H182.257V142.082H184.309ZM190.603 152.162C189.823 152.162 189.121 152.024 188.497 151.748C187.885 151.46 187.399 151.076 187.039 150.596C186.679 150.104 186.487 149.558 186.463 148.958H188.587C188.623 149.378 188.821 149.732 189.181 150.02C189.553 150.296 190.015 150.434 190.567 150.434C191.143 150.434 191.587 150.326 191.899 150.11C192.223 149.882 192.385 149.594 192.385 149.246C192.385 148.874 192.205 148.598 191.845 148.418C191.497 148.238 190.939 148.04 190.171 147.824C189.427 147.62 188.821 147.422 188.353 147.23C187.885 147.038 187.477 146.744 187.129 146.348C186.793 145.952 186.625 145.43 186.625 144.782C186.625 144.254 186.781 143.774 187.093 143.342C187.405 142.898 187.849 142.55 188.425 142.298C189.013 142.046 189.685 141.92 190.441 141.92C191.569 141.92 192.475 142.208 193.159 142.784C193.855 143.348 194.227 144.122 194.275 145.106H192.223C192.187 144.662 192.007 144.308 191.683 144.044C191.359 143.78 190.921 143.648 190.369 143.648C189.829 143.648 189.415 143.75 189.127 143.954C188.839 144.158 188.695 144.428 188.695 144.764C188.695 145.028 188.791 145.25 188.983 145.43C189.175 145.61 189.409 145.754 189.685 145.862C189.961 145.958 190.369 146.084 190.909 146.24C191.629 146.432 192.217 146.63 192.673 146.834C193.141 147.026 193.543 147.314 193.879 147.698C194.215 148.082 194.389 148.592 194.401 149.228C194.401 149.792 194.245 150.296 193.933 150.74C193.621 151.184 193.177 151.532 192.601 151.784C192.037 152.036 191.371 152.162 190.603 152.162ZM199.013 143.756V149.246C199.013 149.618 199.097 149.888 199.265 150.056C199.445 150.212 199.745 150.29 200.165 150.29H201.425V152H199.805C198.881 152 198.173 151.784 197.681 151.352C197.189 150.92 196.943 150.218 196.943 149.246V143.756H195.773V142.082H196.943V139.616H199.013V142.082H201.425V143.756H199.013ZM205.368 143.522C205.668 143.018 206.064 142.628 206.556 142.352C207.06 142.064 207.654 141.92 208.338 141.92V144.044H207.816C207.012 144.044 206.4 144.248 205.98 144.656C205.572 145.064 205.368 145.772 205.368 146.78V152H203.316V142.082H205.368V143.522ZM219.152 142.082L213.068 156.662H210.944L212.96 151.838L209.054 142.082H211.34L214.13 149.642L217.028 142.082H219.152Z" fill="#ABB6C7"/>
</g>
<defs>
<filter id="filter0_d_32_854" x="0" y="0" width="358" height="268" filterUnits="userSpaceOnUse" color-interpolation-filters="sRGB">
<feFlood flood-opacity="0" result="BackgroundImageFix"/>
<feColorMatrix in="SourceAlpha" type="matrix" values="0 0 0 0 0 0 0 0 0 0 0 0 0 0 0 0 0 0 127 0" result="hardAlpha"/>
<feOffset dy="34"/>
<feGaussianBlur stdDeviation="22"/>
<feComposite in2="hardAlpha" operator="out"/>
<feColorMatrix type="matrix" values="0 0 0 0 0.836111 0 0 0 0 0.858255 0 0 0 0 0.895833 0 0 0 0.44 0"/>
<feBlend mode="normal" in2="BackgroundImageFix" result="effect1_dropShadow_32_854"/>
<feBlend mode="normal" in="SourceGraphic" in2="effect1_dropShadow_32_854" result="shape"/>
</filter>
</defs>
</svg>
