<svg width="358" height="268" viewBox="0 0 358 268" fill="none" xmlns="http://www.w3.org/2000/svg">
<g filter="url(#filter0_d_32_877)">
<rect x="44" y="10" width="270" height="180" rx="10" fill="white"/>
<path d="M194 107H174C167.108 107 161.5 101.392 161.5 94.5V79.5H166.5V94.5C166.5 98.6357 169.864 102 174 102H194C198.136 102 201.5 98.6357 201.5 94.5V77H206.5V94.5C206.5 101.392 200.892 107 194 107Z" fill="#2AA7FF"/>
<path d="M164 72C153.089 72 145.068 64.1045 144.732 63.7675L148.268 60.2323C148.332 60.2958 155.199 66.9998 164 66.9998C172.801 66.9998 179.668 60.2958 179.736 60.2285L183.268 63.7673C182.932 64.1043 174.91 72 164 72Z" fill="#2AA7FF"/>
<path d="M164 82C152.972 82 144 73.0277 144 62V48.4037C144 44.9552 146.337 41.9632 149.681 41.1272L155.894 39.5745L157.107 44.4255L150.895 45.9782C149.779 46.2565 149 47.254 149 48.4037V62C149 70.2715 155.729 77 164 77C172.272 77 179 70.2715 179 62V48.4037C179 47.2537 178.222 46.2565 177.106 45.9782L170.894 44.4255L172.107 39.5745L178.319 41.1272C181.664 41.9635 184.001 44.9552 184.001 48.4037V62C184.001 73.0277 175.028 82 164 82Z" fill="#2AA7FF"/>
<path d="M156.5 47C155.119 47 154 45.8805 154 44.5V39.5C154 38.1195 155.119 37 156.5 37C157.881 37 159 38.1195 159 39.5V44.5C159 45.8805 157.881 47 156.5 47Z" fill="#2AA7FF"/>
<path d="M171.5 47C170.119 47 169 45.8805 169 44.5V39.5C169 38.1195 170.119 37 171.5 37C172.881 37 174 38.1195 174 39.5V44.5C174 45.8805 172.881 47 171.5 47Z" fill="#2AA7FF"/>
<path d="M204 79.5C198.486 79.5 194 75.014 194 69.5C194 63.986 198.486 59.5 204 59.5C209.514 59.5 214 63.986 214 69.5C214 75.014 209.514 79.5 204 79.5ZM204 64.5C201.242 64.5 199 66.7425 199 69.5C199 72.2575 201.242 74.5 204 74.5C206.757 74.5 209 72.2575 209 69.5C209 66.7425 206.757 64.5 204 64.5Z" fill="#2AA7FF"/>
<path d="M129.368 143.216C129.368 143.852 129.218 144.452 128.918 145.016C128.618 145.58 128.138 146.042 127.478 146.402C126.818 146.75 125.972 146.924 124.94 146.924H122.672V152H120.62V139.49H124.94C125.9 139.49 126.71 139.658 127.37 139.994C128.042 140.318 128.54 140.762 128.864 141.326C129.2 141.89 129.368 142.52 129.368 143.216ZM124.94 145.25C125.72 145.25 126.302 145.076 126.686 144.728C127.07 144.368 127.262 143.864 127.262 143.216C127.262 141.848 126.488 141.164 124.94 141.164H122.672V145.25H124.94ZM133.377 143.522C133.677 143.018 134.073 142.628 134.565 142.352C135.069 142.064 135.663 141.92 136.347 141.92V144.044H135.825C135.021 144.044 134.409 144.248 133.989 144.656C133.581 145.064 133.377 145.772 133.377 146.78V152H131.325V142.082H133.377V143.522ZM139.277 140.768C138.905 140.768 138.593 140.642 138.341 140.39C138.089 140.138 137.963 139.826 137.963 139.454C137.963 139.082 138.089 138.77 138.341 138.518C138.593 138.266 138.905 138.14 139.277 138.14C139.637 138.14 139.943 138.266 140.195 138.518C140.447 138.77 140.573 139.082 140.573 139.454C140.573 139.826 140.447 140.138 140.195 140.39C139.943 140.642 139.637 140.768 139.277 140.768ZM140.285 142.082V152H138.233V142.082H140.285ZM154.985 141.92C155.765 141.92 156.461 142.082 157.073 142.406C157.697 142.73 158.183 143.21 158.531 143.846C158.891 144.482 159.071 145.25 159.071 146.15V152H157.037V146.456C157.037 145.568 156.815 144.89 156.371 144.422C155.927 143.942 155.321 143.702 154.553 143.702C153.785 143.702 153.173 143.942 152.717 144.422C152.273 144.89 152.051 145.568 152.051 146.456V152H150.017V146.456C150.017 145.568 149.795 144.89 149.351 144.422C148.907 143.942 148.301 143.702 147.533 143.702C146.765 143.702 146.153 143.942 145.697 144.422C145.253 144.89 145.031 145.568 145.031 146.456V152H142.979V142.082H145.031V143.216C145.367 142.808 145.793 142.49 146.309 142.262C146.825 142.034 147.377 141.92 147.965 141.92C148.757 141.92 149.465 142.088 150.089 142.424C150.713 142.76 151.193 143.246 151.529 143.882C151.829 143.282 152.297 142.808 152.933 142.46C153.569 142.1 154.253 141.92 154.985 141.92ZM160.998 146.996C160.998 146 161.202 145.118 161.61 144.35C162.03 143.582 162.594 142.988 163.302 142.568C164.022 142.136 164.814 141.92 165.678 141.92C166.458 141.92 167.136 142.076 167.712 142.388C168.3 142.688 168.768 143.066 169.116 143.522V142.082H171.186V152H169.116V150.524C168.768 150.992 168.294 151.382 167.694 151.694C167.094 152.006 166.41 152.162 165.642 152.162C164.79 152.162 164.01 151.946 163.302 151.514C162.594 151.07 162.03 150.458 161.61 149.678C161.202 148.886 160.998 147.992 160.998 146.996ZM169.116 147.032C169.116 146.348 168.972 145.754 168.684 145.25C168.408 144.746 168.042 144.362 167.586 144.098C167.13 143.834 166.638 143.702 166.11 143.702C165.582 143.702 165.09 143.834 164.634 144.098C164.178 144.35 163.806 144.728 163.518 145.232C163.242 145.724 163.104 146.312 163.104 146.996C163.104 147.68 163.242 148.28 163.518 148.796C163.806 149.312 164.178 149.708 164.634 149.984C165.102 150.248 165.594 150.38 166.11 150.38C166.638 150.38 167.13 150.248 167.586 149.984C168.042 149.72 168.408 149.336 168.684 148.832C168.972 148.316 169.116 147.716 169.116 147.032ZM175.933 143.522C176.233 143.018 176.629 142.628 177.121 142.352C177.625 142.064 178.219 141.92 178.903 141.92V144.044H178.381C177.577 144.044 176.965 144.248 176.545 144.656C176.137 145.064 175.933 145.772 175.933 146.78V152H173.881V142.082H175.933V143.522ZM189.717 142.082L183.633 156.662H181.509L183.525 151.838L179.619 142.082H181.905L184.695 149.642L187.593 142.082H189.717ZM195.258 145.718C195.258 144.494 195.54 143.396 196.104 142.424C196.68 141.452 197.454 140.696 198.426 140.156C199.41 139.604 200.484 139.328 201.648 139.328C202.98 139.328 204.162 139.658 205.194 140.318C206.238 140.966 206.994 141.89 207.462 143.09H204.996C204.672 142.43 204.222 141.938 203.646 141.614C203.07 141.29 202.404 141.128 201.648 141.128C200.82 141.128 200.082 141.314 199.434 141.686C198.786 142.058 198.276 142.592 197.904 143.288C197.544 143.984 197.364 144.794 197.364 145.718C197.364 146.642 197.544 147.452 197.904 148.148C198.276 148.844 198.786 149.384 199.434 149.768C200.082 150.14 200.82 150.326 201.648 150.326C202.404 150.326 203.07 150.164 203.646 149.84C204.222 149.516 204.672 149.024 204.996 148.364H207.462C206.994 149.564 206.238 150.488 205.194 151.136C204.162 151.784 202.98 152.108 201.648 152.108C200.472 152.108 199.398 151.838 198.426 151.298C197.454 150.746 196.68 149.984 196.104 149.012C195.54 148.04 195.258 146.942 195.258 145.718ZM209.18 146.996C209.18 146 209.384 145.118 209.792 144.35C210.212 143.582 210.776 142.988 211.484 142.568C212.204 142.136 212.996 141.92 213.86 141.92C214.64 141.92 215.318 142.076 215.894 142.388C216.482 142.688 216.95 143.066 217.298 143.522V142.082H219.368V152H217.298V150.524C216.95 150.992 216.476 151.382 215.876 151.694C215.276 152.006 214.592 152.162 213.824 152.162C212.972 152.162 212.192 151.946 211.484 151.514C210.776 151.07 210.212 150.458 209.792 149.678C209.384 148.886 209.18 147.992 209.18 146.996ZM217.298 147.032C217.298 146.348 217.154 145.754 216.866 145.25C216.59 144.746 216.224 144.362 215.768 144.098C215.312 143.834 214.82 143.702 214.292 143.702C213.764 143.702 213.272 143.834 212.816 144.098C212.36 144.35 211.988 144.728 211.7 145.232C211.424 145.724 211.286 146.312 211.286 146.996C211.286 147.68 211.424 148.28 211.7 148.796C211.988 149.312 212.36 149.708 212.816 149.984C213.284 150.248 213.776 150.38 214.292 150.38C214.82 150.38 215.312 150.248 215.768 149.984C216.224 149.72 216.59 149.336 216.866 148.832C217.154 148.316 217.298 147.716 217.298 147.032ZM224.115 143.522C224.415 143.018 224.811 142.628 225.303 142.352C225.807 142.064 226.401 141.92 227.085 141.92V144.044H226.563C225.759 144.044 225.147 144.248 224.727 144.656C224.319 145.064 224.115 145.772 224.115 146.78V152H222.063V142.082H224.115V143.522ZM238.061 146.798C238.061 147.17 238.037 147.506 237.989 147.806H230.411C230.471 148.598 230.765 149.234 231.293 149.714C231.821 150.194 232.469 150.434 233.237 150.434C234.341 150.434 235.121 149.972 235.577 149.048H237.791C237.491 149.96 236.945 150.71 236.153 151.298C235.373 151.874 234.401 152.162 233.237 152.162C232.289 152.162 231.437 151.952 230.681 151.532C229.937 151.1 229.349 150.5 228.917 149.732C228.497 148.952 228.287 148.052 228.287 147.032C228.287 146.012 228.491 145.118 228.899 144.35C229.319 143.57 229.901 142.97 230.645 142.55C231.401 142.13 232.265 141.92 233.237 141.92C234.173 141.92 235.007 142.124 235.739 142.532C236.471 142.94 237.041 143.516 237.449 144.26C237.857 144.992 238.061 145.838 238.061 146.798ZM235.919 146.15C235.907 145.394 235.637 144.788 235.109 144.332C234.581 143.876 233.927 143.648 233.147 143.648C232.439 143.648 231.833 143.876 231.329 144.332C230.825 144.776 230.525 145.382 230.429 146.15H235.919Z" fill="#ABB6C7"/>
</g>
<defs>
<filter id="filter0_d_32_877" x="0" y="0" width="358" height="268" filterUnits="userSpaceOnUse" color-interpolation-filters="sRGB">
<feFlood flood-opacity="0" result="BackgroundImageFix"/>
<feColorMatrix in="SourceAlpha" type="matrix" values="0 0 0 0 0 0 0 0 0 0 0 0 0 0 0 0 0 0 127 0" result="hardAlpha"/>
<feOffset dy="34"/>
<feGaussianBlur stdDeviation="22"/>
<feComposite in2="hardAlpha" operator="out"/>
<feColorMatrix type="matrix" values="0 0 0 0 0.836111 0 0 0 0 0.858255 0 0 0 0 0.895833 0 0 0 0.44 0"/>
<feBlend mode="normal" in2="BackgroundImageFix" result="effect1_dropShadow_32_877"/>
<feBlend mode="normal" in="SourceGraphic" in2="effect1_dropShadow_32_877" result="shape"/>
</filter>
</defs>
</svg>
