<svg width="358" height="268" viewBox="0 0 358 268" fill="none" xmlns="http://www.w3.org/2000/svg">
<g filter="url(#filter0_d_32_898)">
<rect x="44" y="10" width="270" height="180" rx="10" fill="white"/>
<path d="M182.447 99.9688C181.769 99.9688 181.122 99.6928 180.65 99.207L155.777 73.4868C149.23 66.7118 149.322 55.7818 155.982 49.119C162.059 43.0423 171.822 42.349 178.692 47.5053L182.447 50.3203L186.197 47.5053C193.077 42.3515 202.838 43.0448 208.91 49.119C215.572 55.7815 215.665 66.7118 209.115 73.4868L184.244 99.207C183.773 99.6928 183.126 99.9688 182.447 99.9688ZM168.285 49.0483C165.087 49.0483 161.903 50.269 159.518 52.6543C154.774 57.4003 154.708 65.186 159.371 70.0103L182.448 93.8725L205.521 70.0103C210.187 65.186 210.121 57.4005 205.375 52.6543C201.049 48.3258 194.093 47.8373 189.198 51.5043L183.949 55.4448C183.06 56.1138 181.837 56.1138 180.949 55.4448L175.695 51.5043C173.497 49.8563 170.885 49.0483 168.285 49.0483Z" fill="#2AA7FF"/>
<path d="M181.5 84.5001C181.441 84.5001 181.383 84.4976 181.322 84.4928C180.313 84.4221 179.449 83.7506 179.129 82.7911L173.787 66.7656L171.322 72.9276C170.941 73.8773 170.023 74.4998 169 74.4998H146.5C145.118 74.4998 144 73.3816 144 71.9998C144 70.6181 145.118 69.4998 146.5 69.4998H167.308L171.678 58.5721C172.068 57.5981 173.052 56.9926 174.073 56.9998C175.123 57.0316 176.041 57.7151 176.37 58.7088L181.963 75.4838L184.263 70.8818C184.688 70.0346 185.552 69.5001 186.499 69.5001H193.999C195.381 69.5001 196.499 70.6183 196.499 72.0001C196.499 73.3818 195.381 74.5001 193.999 74.5001H188.045L183.736 83.1183C183.311 83.9703 182.442 84.5001 181.5 84.5001Z" fill="#2AA7FF"/>
<path d="M129.489 145.718C129.489 144.494 129.771 143.396 130.335 142.424C130.911 141.452 131.685 140.696 132.657 140.156C133.641 139.604 134.715 139.328 135.879 139.328C137.211 139.328 138.393 139.658 139.425 140.318C140.469 140.966 141.225 141.89 141.693 143.09H139.227C138.903 142.43 138.453 141.938 137.877 141.614C137.301 141.29 136.635 141.128 135.879 141.128C135.051 141.128 134.313 141.314 133.665 141.686C133.017 142.058 132.507 142.592 132.135 143.288C131.775 143.984 131.595 144.794 131.595 145.718C131.595 146.642 131.775 147.452 132.135 148.148C132.507 148.844 133.017 149.384 133.665 149.768C134.313 150.14 135.051 150.326 135.879 150.326C136.635 150.326 137.301 150.164 137.877 149.84C138.453 149.516 138.903 149.024 139.227 148.364H141.693C141.225 149.564 140.469 150.488 139.425 151.136C138.393 151.784 137.211 152.108 135.879 152.108C134.703 152.108 133.629 151.838 132.657 151.298C131.685 150.746 130.911 149.984 130.335 149.012C129.771 148.04 129.489 146.942 129.489 145.718ZM143.411 146.996C143.411 146 143.615 145.118 144.023 144.35C144.443 143.582 145.007 142.988 145.715 142.568C146.435 142.136 147.227 141.92 148.091 141.92C148.871 141.92 149.549 142.076 150.125 142.388C150.713 142.688 151.181 143.066 151.529 143.522V142.082H153.599V152H151.529V150.524C151.181 150.992 150.707 151.382 150.107 151.694C149.507 152.006 148.823 152.162 148.055 152.162C147.203 152.162 146.423 151.946 145.715 151.514C145.007 151.07 144.443 150.458 144.023 149.678C143.615 148.886 143.411 147.992 143.411 146.996ZM151.529 147.032C151.529 146.348 151.385 145.754 151.097 145.25C150.821 144.746 150.455 144.362 149.999 144.098C149.543 143.834 149.051 143.702 148.523 143.702C147.995 143.702 147.503 143.834 147.047 144.098C146.591 144.35 146.219 144.728 145.931 145.232C145.655 145.724 145.517 146.312 145.517 146.996C145.517 147.68 145.655 148.28 145.931 148.796C146.219 149.312 146.591 149.708 147.047 149.984C147.515 150.248 148.007 150.38 148.523 150.38C149.051 150.38 149.543 150.248 149.999 149.984C150.455 149.72 150.821 149.336 151.097 148.832C151.385 148.316 151.529 147.716 151.529 147.032ZM158.346 143.522C158.646 143.018 159.042 142.628 159.534 142.352C160.038 142.064 160.632 141.92 161.316 141.92V144.044H160.794C159.99 144.044 159.378 144.248 158.958 144.656C158.55 145.064 158.346 145.772 158.346 146.78V152H156.294V142.082H158.346V143.522ZM162.519 146.996C162.519 146 162.723 145.118 163.131 144.35C163.551 143.582 164.115 142.988 164.823 142.568C165.543 142.136 166.341 141.92 167.217 141.92C167.865 141.92 168.501 142.064 169.125 142.352C169.761 142.628 170.265 143 170.637 143.468V138.68H172.707V152H170.637V150.506C170.301 150.986 169.833 151.382 169.233 151.694C168.645 152.006 167.967 152.162 167.199 152.162C166.335 152.162 165.543 151.946 164.823 151.514C164.115 151.07 163.551 150.458 163.131 149.678C162.723 148.886 162.519 147.992 162.519 146.996ZM170.637 147.032C170.637 146.348 170.493 145.754 170.205 145.25C169.929 144.746 169.563 144.362 169.107 144.098C168.651 143.834 168.159 143.702 167.631 143.702C167.103 143.702 166.611 143.834 166.155 144.098C165.699 144.35 165.327 144.728 165.039 145.232C164.763 145.724 164.625 146.312 164.625 146.996C164.625 147.68 164.763 148.28 165.039 148.796C165.327 149.312 165.699 149.708 166.155 149.984C166.623 150.248 167.115 150.38 167.631 150.38C168.159 150.38 168.651 150.248 169.107 149.984C169.563 149.72 169.929 149.336 170.205 148.832C170.493 148.316 170.637 147.716 170.637 147.032ZM176.446 140.768C176.074 140.768 175.762 140.642 175.51 140.39C175.258 140.138 175.132 139.826 175.132 139.454C175.132 139.082 175.258 138.77 175.51 138.518C175.762 138.266 176.074 138.14 176.446 138.14C176.806 138.14 177.112 138.266 177.364 138.518C177.616 138.77 177.742 139.082 177.742 139.454C177.742 139.826 177.616 140.138 177.364 140.39C177.112 140.642 176.806 140.768 176.446 140.768ZM177.454 142.082V152H175.402V142.082H177.454ZM184.45 152.162C183.514 152.162 182.668 151.952 181.912 151.532C181.156 151.1 180.562 150.5 180.13 149.732C179.698 148.952 179.482 148.052 179.482 147.032C179.482 146.024 179.704 145.13 180.148 144.35C180.592 143.57 181.198 142.97 181.966 142.55C182.734 142.13 183.592 141.92 184.54 141.92C185.488 141.92 186.346 142.13 187.114 142.55C187.882 142.97 188.488 143.57 188.932 144.35C189.376 145.13 189.598 146.024 189.598 147.032C189.598 148.04 189.37 148.934 188.914 149.714C188.458 150.494 187.834 151.1 187.042 151.532C186.262 151.952 185.398 152.162 184.45 152.162ZM184.45 150.38C184.978 150.38 185.47 150.254 185.926 150.002C186.394 149.75 186.772 149.372 187.06 148.868C187.348 148.364 187.492 147.752 187.492 147.032C187.492 146.312 187.354 145.706 187.078 145.214C186.802 144.71 186.436 144.332 185.98 144.08C185.524 143.828 185.032 143.702 184.504 143.702C183.976 143.702 183.484 143.828 183.028 144.08C182.584 144.332 182.23 144.71 181.966 145.214C181.702 145.706 181.57 146.312 181.57 147.032C181.57 148.1 181.84 148.928 182.38 149.516C182.932 150.092 183.622 150.38 184.45 150.38ZM193.678 138.68V152H191.626V138.68H193.678ZM200.674 152.162C199.738 152.162 198.892 151.952 198.136 151.532C197.38 151.1 196.786 150.5 196.354 149.732C195.922 148.952 195.706 148.052 195.706 147.032C195.706 146.024 195.928 145.13 196.372 144.35C196.816 143.57 197.422 142.97 198.19 142.55C198.958 142.13 199.816 141.92 200.764 141.92C201.712 141.92 202.57 142.13 203.338 142.55C204.106 142.97 204.712 143.57 205.156 144.35C205.6 145.13 205.822 146.024 205.822 147.032C205.822 148.04 205.594 148.934 205.138 149.714C204.682 150.494 204.058 151.1 203.266 151.532C202.486 151.952 201.622 152.162 200.674 152.162ZM200.674 150.38C201.202 150.38 201.694 150.254 202.15 150.002C202.618 149.75 202.996 149.372 203.284 148.868C203.572 148.364 203.716 147.752 203.716 147.032C203.716 146.312 203.578 145.706 203.302 145.214C203.026 144.71 202.66 144.332 202.204 144.08C201.748 143.828 201.256 143.702 200.728 143.702C200.2 143.702 199.708 143.828 199.252 144.08C198.808 144.332 198.454 144.71 198.19 145.214C197.926 145.706 197.794 146.312 197.794 147.032C197.794 148.1 198.064 148.928 198.604 149.516C199.156 150.092 199.846 150.38 200.674 150.38ZM211.847 141.92C212.615 141.92 213.293 142.076 213.881 142.388C214.481 142.688 214.949 143.066 215.285 143.522V142.082H217.355V152.162C217.355 153.074 217.163 153.884 216.779 154.592C216.395 155.312 215.837 155.876 215.105 156.284C214.385 156.692 213.521 156.896 212.513 156.896C211.169 156.896 210.053 156.578 209.165 155.942C208.277 155.318 207.773 154.466 207.653 153.386H209.687C209.843 153.902 210.173 154.316 210.677 154.628C211.193 154.952 211.805 155.114 212.513 155.114C213.341 155.114 214.007 154.862 214.511 154.358C215.027 153.854 215.285 153.122 215.285 152.162V150.506C214.937 150.974 214.463 151.37 213.863 151.694C213.275 152.006 212.603 152.162 211.847 152.162C210.983 152.162 210.191 151.946 209.471 151.514C208.763 151.07 208.199 150.458 207.779 149.678C207.371 148.886 207.167 147.992 207.167 146.996C207.167 146 207.371 145.118 207.779 144.35C208.199 143.582 208.763 142.988 209.471 142.568C210.191 142.136 210.983 141.92 211.847 141.92ZM215.285 147.032C215.285 146.348 215.141 145.754 214.853 145.25C214.577 144.746 214.211 144.362 213.755 144.098C213.299 143.834 212.807 143.702 212.279 143.702C211.751 143.702 211.259 143.834 210.803 144.098C210.347 144.35 209.975 144.728 209.687 145.232C209.411 145.724 209.273 146.312 209.273 146.996C209.273 147.68 209.411 148.28 209.687 148.796C209.975 149.312 210.347 149.708 210.803 149.984C211.271 150.248 211.763 150.38 212.279 150.38C212.807 150.38 213.299 150.248 213.755 149.984C214.211 149.72 214.577 149.336 214.853 148.832C215.141 148.316 215.285 147.716 215.285 147.032ZM228.978 142.082L222.894 156.662H220.77L222.786 151.838L218.88 142.082H221.166L223.956 149.642L226.854 142.082H228.978Z" fill="#ABB6C7"/>
</g>
<defs>
<filter id="filter0_d_32_898" x="0" y="0" width="358" height="268" filterUnits="userSpaceOnUse" color-interpolation-filters="sRGB">
<feFlood flood-opacity="0" result="BackgroundImageFix"/>
<feColorMatrix in="SourceAlpha" type="matrix" values="0 0 0 0 0 0 0 0 0 0 0 0 0 0 0 0 0 0 127 0" result="hardAlpha"/>
<feOffset dy="34"/>
<feGaussianBlur stdDeviation="22"/>
<feComposite in2="hardAlpha" operator="out"/>
<feColorMatrix type="matrix" values="0 0 0 0 0.836111 0 0 0 0 0.858255 0 0 0 0 0.895833 0 0 0 0.44 0"/>
<feBlend mode="normal" in2="BackgroundImageFix" result="effect1_dropShadow_32_898"/>
<feBlend mode="normal" in="SourceGraphic" in2="effect1_dropShadow_32_898" result="shape"/>
</filter>
</defs>
</svg>
