<svg width="358" height="259" viewBox="0 0 358 259" fill="none" xmlns="http://www.w3.org/2000/svg">
<g filter="url(#filter0_d_32_919)">
<rect x="44" y="10" width="270" height="171" rx="10" fill="white"/>
<path d="M153.688 104.5C153.688 105.882 154.82 107 156.219 107C157.618 107 158.75 105.882 158.75 104.5V99.5H153.688V104.5Z" fill="#2AA7FF"/>
<path d="M199.25 104.5C199.25 105.882 200.382 107 201.781 107C203.18 107 204.312 105.882 204.312 104.5V99.5H199.25V104.5Z" fill="#2AA7FF"/>
<path d="M211.906 77H146.094V82H211.906V77Z" fill="#2AA7FF"/>
<path d="M206.844 102H151.156C146.969 102 143.562 98.6357 143.562 94.5V44.5C143.562 40.3643 146.969 37 151.156 37H206.844C211.031 37 214.438 40.3643 214.438 44.5V94.5C214.438 98.6357 211.031 102 206.844 102ZM151.156 42C149.76 42 148.625 43.1205 148.625 44.5V94.5C148.625 95.8795 149.76 97 151.156 97H206.844C208.24 97 209.375 95.8795 209.375 94.5V44.5C209.375 43.1205 208.24 42 206.844 42H151.156Z" fill="#2AA7FF"/>
<path d="M201.781 92H191.656C190.257 92 189.125 90.8817 189.125 89.5C189.125 88.1183 190.257 87 191.656 87H201.781C203.18 87 204.312 88.1183 204.312 89.5C204.312 90.8817 203.18 92 201.781 92Z" fill="#2AA7FF"/>
<path d="M156.219 92C157.617 92 158.75 90.8807 158.75 89.5C158.75 88.1193 157.617 87 156.219 87C154.821 87 153.688 88.1193 153.688 89.5C153.688 90.8807 154.821 92 156.219 92Z" fill="#2AA7FF"/>
<path d="M166.344 92C167.742 92 168.875 90.8807 168.875 89.5C168.875 88.1193 167.742 87 166.344 87C164.946 87 163.812 88.1193 163.812 89.5C163.812 90.8807 164.946 92 166.344 92Z" fill="#2AA7FF"/>
<path d="M191.656 71.9999C191.565 71.9999 191.473 71.9949 191.379 71.9851C190.326 71.8704 189.459 71.1209 189.201 70.1051L186.037 57.6076L183.882 62.9274C183.565 63.7086 182.873 64.2799 182.04 64.4484C181.197 64.6169 180.342 64.3604 179.741 63.7671L177.393 61.4479L173.757 70.4274C173.347 71.4356 172.321 72.0436 171.236 71.9949C170.141 71.9216 169.216 71.1574 168.952 70.1051L165.548 56.6626L163.546 60.6176C163.116 61.4649 162.241 61.9994 161.281 61.9994H156.219C154.82 61.9994 153.688 60.8811 153.688 59.4994C153.688 58.1176 154.82 56.9994 156.219 56.9994H159.717L164.08 48.3811C164.554 47.4461 165.545 46.8991 166.621 47.0139C167.674 47.1286 168.541 47.8781 168.799 48.8939L171.963 61.3914L174.118 56.0716C174.435 55.2904 175.127 54.7191 175.96 54.5506C176.805 54.3796 177.658 54.6386 178.259 55.2319L180.607 57.5511L184.243 48.5716C184.653 47.5634 185.682 46.9626 186.764 47.0041C187.859 47.0774 188.784 47.8416 189.048 48.8939L192.452 62.3364L194.454 58.3814C194.884 57.5341 195.759 56.9996 196.718 56.9996H201.781C203.18 56.9996 204.312 58.1179 204.312 59.4996C204.312 60.8814 203.18 61.9996 201.781 61.9996H198.283L193.92 70.6179C193.488 71.4699 192.608 71.9999 191.656 71.9999Z" fill="#2AA7FF"/>
<path d="M124.664 139.49V152H122.612V143.432L118.796 152H117.374L113.54 143.432V152H111.488V139.49H113.702L118.094 149.3L122.468 139.49H124.664ZM133.859 152L130.979 146.996H129.413V152H127.361V139.49H131.681C132.641 139.49 133.451 139.658 134.111 139.994C134.783 140.33 135.281 140.78 135.605 141.344C135.941 141.908 136.109 142.538 136.109 143.234C136.109 144.05 135.869 144.794 135.389 145.466C134.921 146.126 134.195 146.576 133.211 146.816L136.307 152H133.859ZM129.413 145.358H131.681C132.449 145.358 133.025 145.166 133.409 144.782C133.805 144.398 134.003 143.882 134.003 143.234C134.003 142.586 133.811 142.082 133.427 141.722C133.043 141.35 132.461 141.164 131.681 141.164H129.413V145.358ZM140.786 139.49V152H138.734V139.49H140.786ZM154.654 152L151.774 146.996H150.208V152H148.156V139.49H152.476C153.436 139.49 154.246 139.658 154.906 139.994C155.578 140.33 156.076 140.78 156.4 141.344C156.736 141.908 156.904 142.538 156.904 143.234C156.904 144.05 156.664 144.794 156.184 145.466C155.716 146.126 154.99 146.576 154.006 146.816L157.102 152H154.654ZM150.208 145.358H152.476C153.244 145.358 153.82 145.166 154.204 144.782C154.6 144.398 154.798 143.882 154.798 143.234C154.798 142.586 154.606 142.082 154.222 141.722C153.838 141.35 153.256 141.164 152.476 141.164H150.208V145.358ZM168.619 146.798C168.619 147.17 168.595 147.506 168.547 147.806H160.969C161.029 148.598 161.323 149.234 161.851 149.714C162.379 150.194 163.027 150.434 163.795 150.434C164.899 150.434 165.679 149.972 166.135 149.048H168.349C168.049 149.96 167.503 150.71 166.711 151.298C165.931 151.874 164.959 152.162 163.795 152.162C162.847 152.162 161.995 151.952 161.239 151.532C160.495 151.1 159.907 150.5 159.475 149.732C159.055 148.952 158.845 148.052 158.845 147.032C158.845 146.012 159.049 145.118 159.457 144.35C159.877 143.57 160.459 142.97 161.203 142.55C161.959 142.13 162.823 141.92 163.795 141.92C164.731 141.92 165.565 142.124 166.297 142.532C167.029 142.94 167.599 143.516 168.007 144.26C168.415 144.992 168.619 145.838 168.619 146.798ZM166.477 146.15C166.465 145.394 166.195 144.788 165.667 144.332C165.139 143.876 164.485 143.648 163.705 143.648C162.997 143.648 162.391 143.876 161.887 144.332C161.383 144.776 161.083 145.382 160.987 146.15H166.477ZM174.238 152.162C173.458 152.162 172.756 152.024 172.132 151.748C171.52 151.46 171.034 151.076 170.674 150.596C170.314 150.104 170.122 149.558 170.098 148.958H172.222C172.258 149.378 172.456 149.732 172.816 150.02C173.188 150.296 173.65 150.434 174.202 150.434C174.778 150.434 175.222 150.326 175.534 150.11C175.858 149.882 176.02 149.594 176.02 149.246C176.02 148.874 175.84 148.598 175.48 148.418C175.132 148.238 174.574 148.04 173.806 147.824C173.062 147.62 172.456 147.422 171.988 147.23C171.52 147.038 171.112 146.744 170.764 146.348C170.428 145.952 170.26 145.43 170.26 144.782C170.26 144.254 170.416 143.774 170.728 143.342C171.04 142.898 171.484 142.55 172.06 142.298C172.648 142.046 173.32 141.92 174.076 141.92C175.204 141.92 176.11 142.208 176.794 142.784C177.49 143.348 177.862 144.122 177.91 145.106H175.858C175.822 144.662 175.642 144.308 175.318 144.044C174.994 143.78 174.556 143.648 174.004 143.648C173.464 143.648 173.05 143.75 172.762 143.954C172.474 144.158 172.33 144.428 172.33 144.764C172.33 145.028 172.426 145.25 172.618 145.43C172.81 145.61 173.044 145.754 173.32 145.862C173.596 145.958 174.004 146.084 174.544 146.24C175.264 146.432 175.852 146.63 176.308 146.834C176.776 147.026 177.178 147.314 177.514 147.698C177.85 148.082 178.024 148.592 178.036 149.228C178.036 149.792 177.88 150.296 177.568 150.74C177.256 151.184 176.812 151.532 176.236 151.784C175.672 152.036 175.006 152.162 174.238 152.162ZM184.555 152.162C183.619 152.162 182.773 151.952 182.017 151.532C181.261 151.1 180.667 150.5 180.235 149.732C179.803 148.952 179.587 148.052 179.587 147.032C179.587 146.024 179.809 145.13 180.253 144.35C180.697 143.57 181.303 142.97 182.071 142.55C182.839 142.13 183.697 141.92 184.645 141.92C185.593 141.92 186.451 142.13 187.219 142.55C187.987 142.97 188.593 143.57 189.037 144.35C189.481 145.13 189.703 146.024 189.703 147.032C189.703 148.04 189.475 148.934 189.019 149.714C188.563 150.494 187.939 151.1 187.147 151.532C186.367 151.952 185.503 152.162 184.555 152.162ZM184.555 150.38C185.083 150.38 185.575 150.254 186.031 150.002C186.499 149.75 186.877 149.372 187.165 148.868C187.453 148.364 187.597 147.752 187.597 147.032C187.597 146.312 187.459 145.706 187.183 145.214C186.907 144.71 186.541 144.332 186.085 144.08C185.629 143.828 185.137 143.702 184.609 143.702C184.081 143.702 183.589 143.828 183.133 144.08C182.689 144.332 182.335 144.71 182.071 145.214C181.807 145.706 181.675 146.312 181.675 147.032C181.675 148.1 181.945 148.928 182.485 149.516C183.037 150.092 183.727 150.38 184.555 150.38ZM196.736 141.92C197.516 141.92 198.212 142.082 198.824 142.406C199.448 142.73 199.934 143.21 200.282 143.846C200.63 144.482 200.804 145.25 200.804 146.15V152H198.77V146.456C198.77 145.568 198.548 144.89 198.104 144.422C197.66 143.942 197.054 143.702 196.286 143.702C195.518 143.702 194.906 143.942 194.45 144.422C194.006 144.89 193.784 145.568 193.784 146.456V152H191.732V142.082H193.784V143.216C194.12 142.808 194.546 142.49 195.062 142.262C195.59 142.034 196.148 141.92 196.736 141.92ZM202.737 146.996C202.737 146 202.941 145.118 203.349 144.35C203.769 143.582 204.333 142.988 205.041 142.568C205.761 142.136 206.553 141.92 207.417 141.92C208.197 141.92 208.875 142.076 209.451 142.388C210.039 142.688 210.507 143.066 210.855 143.522V142.082H212.925V152H210.855V150.524C210.507 150.992 210.033 151.382 209.433 151.694C208.833 152.006 208.149 152.162 207.381 152.162C206.529 152.162 205.749 151.946 205.041 151.514C204.333 151.07 203.769 150.458 203.349 149.678C202.941 148.886 202.737 147.992 202.737 146.996ZM210.855 147.032C210.855 146.348 210.711 145.754 210.423 145.25C210.147 144.746 209.781 144.362 209.325 144.098C208.869 143.834 208.377 143.702 207.849 143.702C207.321 143.702 206.829 143.834 206.373 144.098C205.917 144.35 205.545 144.728 205.257 145.232C204.981 145.724 204.843 146.312 204.843 146.996C204.843 147.68 204.981 148.28 205.257 148.796C205.545 149.312 205.917 149.708 206.373 149.984C206.841 150.248 207.333 150.38 207.849 150.38C208.377 150.38 208.869 150.248 209.325 149.984C209.781 149.72 210.147 149.336 210.423 148.832C210.711 148.316 210.855 147.716 210.855 147.032ZM220.625 141.92C221.405 141.92 222.101 142.082 222.713 142.406C223.337 142.73 223.823 143.21 224.171 143.846C224.519 144.482 224.693 145.25 224.693 146.15V152H222.659V146.456C222.659 145.568 222.437 144.89 221.993 144.422C221.549 143.942 220.943 143.702 220.175 143.702C219.407 143.702 218.795 143.942 218.339 144.422C217.895 144.89 217.673 145.568 217.673 146.456V152H215.621V142.082H217.673V143.216C218.009 142.808 218.435 142.49 218.951 142.262C219.479 142.034 220.037 141.92 220.625 141.92ZM226.626 147.032C226.626 146.012 226.83 145.118 227.238 144.35C227.658 143.57 228.234 142.97 228.966 142.55C229.698 142.13 230.538 141.92 231.486 141.92C232.686 141.92 233.676 142.208 234.456 142.784C235.248 143.348 235.782 144.158 236.058 145.214H233.844C233.664 144.722 233.376 144.338 232.98 144.062C232.584 143.786 232.086 143.648 231.486 143.648C230.646 143.648 229.974 143.948 229.47 144.548C228.978 145.136 228.732 145.964 228.732 147.032C228.732 148.1 228.978 148.934 229.47 149.534C229.974 150.134 230.646 150.434 231.486 150.434C232.674 150.434 233.46 149.912 233.844 148.868H236.058C235.77 149.876 235.23 150.68 234.438 151.28C233.646 151.868 232.662 152.162 231.486 152.162C230.538 152.162 229.698 151.952 228.966 151.532C228.234 151.1 227.658 150.5 227.238 149.732C226.83 148.952 226.626 148.052 226.626 147.032ZM247.193 146.798C247.193 147.17 247.169 147.506 247.121 147.806H239.543C239.603 148.598 239.897 149.234 240.425 149.714C240.953 150.194 241.601 150.434 242.369 150.434C243.473 150.434 244.253 149.972 244.709 149.048H246.923C246.623 149.96 246.077 150.71 245.285 151.298C244.505 151.874 243.533 152.162 242.369 152.162C241.421 152.162 240.569 151.952 239.813 151.532C239.069 151.1 238.481 150.5 238.049 149.732C237.629 148.952 237.419 148.052 237.419 147.032C237.419 146.012 237.623 145.118 238.031 144.35C238.451 143.57 239.033 142.97 239.777 142.55C240.533 142.13 241.397 141.92 242.369 141.92C243.305 141.92 244.139 142.124 244.871 142.532C245.603 142.94 246.173 143.516 246.581 144.26C246.989 144.992 247.193 145.838 247.193 146.798ZM245.051 146.15C245.039 145.394 244.769 144.788 244.241 144.332C243.713 143.876 243.059 143.648 242.279 143.648C241.571 143.648 240.965 143.876 240.461 144.332C239.957 144.776 239.657 145.382 239.561 146.15H245.051Z" fill="#ABB6C7"/>
</g>
<defs>
<filter id="filter0_d_32_919" x="0" y="0" width="358" height="259" filterUnits="userSpaceOnUse" color-interpolation-filters="sRGB">
<feFlood flood-opacity="0" result="BackgroundImageFix"/>
<feColorMatrix in="SourceAlpha" type="matrix" values="0 0 0 0 0 0 0 0 0 0 0 0 0 0 0 0 0 0 127 0" result="hardAlpha"/>
<feOffset dy="34"/>
<feGaussianBlur stdDeviation="22"/>
<feComposite in2="hardAlpha" operator="out"/>
<feColorMatrix type="matrix" values="0 0 0 0 0.836111 0 0 0 0 0.858255 0 0 0 0 0.895833 0 0 0 0.44 0"/>
<feBlend mode="normal" in2="BackgroundImageFix" result="effect1_dropShadow_32_919"/>
<feBlend mode="normal" in="SourceGraphic" in2="effect1_dropShadow_32_919" result="shape"/>
</filter>
</defs>
</svg>
