<svg width="358" height="268" viewBox="0 0 358 268" fill="none" xmlns="http://www.w3.org/2000/svg">
<g filter="url(#filter0_d_32_867)">
<rect x="44" y="10" width="270" height="180" rx="10" fill="white"/>
<path d="M194.585 70.5569C194.315 70.2849 194 70.0541 193.61 69.9274C192.37 69.5246 191.204 68.7994 190.236 67.8326C189.27 66.8659 188.546 65.7011 188.136 64.4439C186.911 60.7679 184.139 57.7846 180.612 56.2454L176.944 59.9136C177.211 60.1814 177.521 60.4081 177.904 60.5351C180.482 61.3944 182.535 63.4476 183.388 66.0111C184.036 67.9959 185.182 69.8489 186.701 71.3676C187.923 72.5899 189.365 73.5554 190.913 74.2294L194.585 70.5569Z" fill="#2AA7FF"/>
<path d="M178.693 75.8404C179.669 74.8639 179.669 73.2816 178.693 72.3054L171.623 65.2351L168.088 68.7701L173.39 74.0726L159.248 88.2156L153.945 82.9131L150.41 86.4481L157.481 93.5184C157.969 94.0066 158.609 94.2509 159.248 94.2509C159.888 94.2509 160.528 94.0066 161.016 93.5184L178.693 75.8404Z" fill="#2AA7FF"/>
<path d="M155.712 107.781C152.511 107.781 149.311 106.563 146.874 104.127C142.001 99.2536 142.001 91.3214 146.874 86.4484L185.764 47.5569C186.702 46.6194 188.362 46.6194 189.3 47.5569L203.443 61.6999C204.419 62.6764 204.419 64.2584 203.443 65.2351L164.551 104.127C162.115 106.563 158.914 107.781 155.712 107.781ZM150.409 100.591C153.333 103.516 158.09 103.514 161.016 100.591L198.14 63.4674L187.532 52.8594L150.409 89.9836C147.486 92.9084 147.486 97.6664 150.409 100.591Z" fill="#2AA7FF"/>
<path d="M205.21 69.5026C204.57 69.5026 203.931 69.2584 203.443 68.7701L182.229 47.5569C181.76 47.0881 181.497 46.4534 181.497 45.7894C181.497 45.1254 181.76 44.4906 182.229 44.0219L189.301 36.9516C190.277 35.9751 191.859 35.9751 192.836 36.9516L214.048 58.1651C215.025 59.1416 215.025 60.7236 214.048 61.7004L206.978 68.7706C206.49 69.2589 205.85 69.5026 205.21 69.5026ZM187.532 45.7891L205.21 63.4674L208.745 59.9321L191.068 42.2539L187.532 45.7891Z" fill="#2AA7FF"/>
<path d="M140.297 145.574C140.969 145.694 141.539 146.048 142.007 146.636C142.475 147.224 142.709 147.89 142.709 148.634C142.709 149.27 142.541 149.846 142.205 150.362C141.881 150.866 141.407 151.268 140.783 151.568C140.159 151.856 139.433 152 138.605 152H133.601V139.49H138.371C139.223 139.49 139.955 139.634 140.567 139.922C141.179 140.21 141.641 140.6 141.953 141.092C142.265 141.572 142.421 142.112 142.421 142.712C142.421 143.432 142.229 144.032 141.845 144.512C141.461 144.992 140.945 145.346 140.297 145.574ZM135.653 144.746H138.191C138.863 144.746 139.385 144.596 139.757 144.296C140.141 143.984 140.333 143.54 140.333 142.964C140.333 142.4 140.141 141.962 139.757 141.65C139.385 141.326 138.863 141.164 138.191 141.164H135.653V144.746ZM138.425 150.326C139.121 150.326 139.667 150.158 140.063 149.822C140.459 149.486 140.657 149.018 140.657 148.418C140.657 147.806 140.447 147.32 140.027 146.96C139.607 146.6 139.049 146.42 138.353 146.42H135.653V150.326H138.425ZM146.991 138.68V152H144.939V138.68H146.991ZM153.987 152.162C153.051 152.162 152.205 151.952 151.449 151.532C150.693 151.1 150.099 150.5 149.667 149.732C149.235 148.952 149.019 148.052 149.019 147.032C149.019 146.024 149.241 145.13 149.685 144.35C150.129 143.57 150.735 142.97 151.503 142.55C152.271 142.13 153.129 141.92 154.077 141.92C155.025 141.92 155.883 142.13 156.651 142.55C157.419 142.97 158.025 143.57 158.469 144.35C158.913 145.13 159.135 146.024 159.135 147.032C159.135 148.04 158.907 148.934 158.451 149.714C157.995 150.494 157.371 151.1 156.579 151.532C155.799 151.952 154.935 152.162 153.987 152.162ZM153.987 150.38C154.515 150.38 155.007 150.254 155.463 150.002C155.931 149.75 156.309 149.372 156.597 148.868C156.885 148.364 157.029 147.752 157.029 147.032C157.029 146.312 156.891 145.706 156.615 145.214C156.339 144.71 155.973 144.332 155.517 144.08C155.061 143.828 154.569 143.702 154.041 143.702C153.513 143.702 153.021 143.828 152.565 144.08C152.121 144.332 151.767 144.71 151.503 145.214C151.239 145.706 151.107 146.312 151.107 147.032C151.107 148.1 151.377 148.928 151.917 149.516C152.469 150.092 153.159 150.38 153.987 150.38ZM165.465 152.162C164.529 152.162 163.683 151.952 162.927 151.532C162.171 151.1 161.577 150.5 161.145 149.732C160.713 148.952 160.497 148.052 160.497 147.032C160.497 146.024 160.719 145.13 161.163 144.35C161.607 143.57 162.213 142.97 162.981 142.55C163.749 142.13 164.607 141.92 165.555 141.92C166.503 141.92 167.361 142.13 168.129 142.55C168.897 142.97 169.503 143.57 169.947 144.35C170.391 145.13 170.613 146.024 170.613 147.032C170.613 148.04 170.385 148.934 169.929 149.714C169.473 150.494 168.849 151.1 168.057 151.532C167.277 151.952 166.413 152.162 165.465 152.162ZM165.465 150.38C165.993 150.38 166.485 150.254 166.941 150.002C167.409 149.75 167.787 149.372 168.075 148.868C168.363 148.364 168.507 147.752 168.507 147.032C168.507 146.312 168.369 145.706 168.093 145.214C167.817 144.71 167.451 144.332 166.995 144.08C166.539 143.828 166.047 143.702 165.519 143.702C164.991 143.702 164.499 143.828 164.043 144.08C163.599 144.332 163.245 144.71 162.981 145.214C162.717 145.706 162.585 146.312 162.585 147.032C162.585 148.1 162.855 148.928 163.395 149.516C163.947 150.092 164.637 150.38 165.465 150.38ZM171.958 146.996C171.958 146 172.162 145.118 172.57 144.35C172.99 143.582 173.554 142.988 174.262 142.568C174.982 142.136 175.78 141.92 176.656 141.92C177.304 141.92 177.94 142.064 178.564 142.352C179.2 142.628 179.704 143 180.076 143.468V138.68H182.146V152H180.076V150.506C179.74 150.986 179.272 151.382 178.672 151.694C178.084 152.006 177.406 152.162 176.638 152.162C175.774 152.162 174.982 151.946 174.262 151.514C173.554 151.07 172.99 150.458 172.57 149.678C172.162 148.886 171.958 147.992 171.958 146.996ZM180.076 147.032C180.076 146.348 179.932 145.754 179.644 145.25C179.368 144.746 179.002 144.362 178.546 144.098C178.09 143.834 177.598 143.702 177.07 143.702C176.542 143.702 176.05 143.834 175.594 144.098C175.138 144.35 174.766 144.728 174.478 145.232C174.202 145.724 174.064 146.312 174.064 146.996C174.064 147.68 174.202 148.28 174.478 148.796C174.766 149.312 175.138 149.708 175.594 149.984C176.062 150.248 176.554 150.38 177.07 150.38C177.598 150.38 178.09 150.248 178.546 149.984C179.002 149.72 179.368 149.336 179.644 148.832C179.932 148.316 180.076 147.716 180.076 147.032ZM197.599 139.49V141.164H194.269V152H192.217V141.164H188.869V139.49H197.599ZM208.767 146.798C208.767 147.17 208.743 147.506 208.695 147.806H201.117C201.177 148.598 201.471 149.234 201.999 149.714C202.527 150.194 203.175 150.434 203.943 150.434C205.047 150.434 205.827 149.972 206.283 149.048H208.497C208.197 149.96 207.651 150.71 206.859 151.298C206.079 151.874 205.107 152.162 203.943 152.162C202.995 152.162 202.143 151.952 201.387 151.532C200.643 151.1 200.055 150.5 199.623 149.732C199.203 148.952 198.993 148.052 198.993 147.032C198.993 146.012 199.197 145.118 199.605 144.35C200.025 143.57 200.607 142.97 201.351 142.55C202.107 142.13 202.971 141.92 203.943 141.92C204.879 141.92 205.713 142.124 206.445 142.532C207.177 142.94 207.747 143.516 208.155 144.26C208.563 144.992 208.767 145.838 208.767 146.798ZM206.625 146.15C206.613 145.394 206.343 144.788 205.815 144.332C205.287 143.876 204.633 143.648 203.853 143.648C203.145 143.648 202.539 143.876 202.035 144.332C201.531 144.776 201.231 145.382 201.135 146.15H206.625ZM214.387 152.162C213.607 152.162 212.905 152.024 212.281 151.748C211.669 151.46 211.183 151.076 210.823 150.596C210.463 150.104 210.271 149.558 210.247 148.958H212.371C212.407 149.378 212.605 149.732 212.965 150.02C213.337 150.296 213.799 150.434 214.351 150.434C214.927 150.434 215.371 150.326 215.683 150.11C216.007 149.882 216.169 149.594 216.169 149.246C216.169 148.874 215.989 148.598 215.629 148.418C215.281 148.238 214.723 148.04 213.955 147.824C213.211 147.62 212.605 147.422 212.137 147.23C211.669 147.038 211.261 146.744 210.913 146.348C210.577 145.952 210.409 145.43 210.409 144.782C210.409 144.254 210.565 143.774 210.877 143.342C211.189 142.898 211.633 142.55 212.209 142.298C212.797 142.046 213.469 141.92 214.225 141.92C215.353 141.92 216.259 142.208 216.943 142.784C217.639 143.348 218.011 144.122 218.059 145.106H216.007C215.971 144.662 215.791 144.308 215.467 144.044C215.143 143.78 214.705 143.648 214.153 143.648C213.613 143.648 213.199 143.75 212.911 143.954C212.623 144.158 212.479 144.428 212.479 144.764C212.479 145.028 212.575 145.25 212.767 145.43C212.959 145.61 213.193 145.754 213.469 145.862C213.745 145.958 214.153 146.084 214.693 146.24C215.413 146.432 216.001 146.63 216.457 146.834C216.925 147.026 217.327 147.314 217.663 147.698C217.999 148.082 218.173 148.592 218.185 149.228C218.185 149.792 218.029 150.296 217.717 150.74C217.405 151.184 216.961 151.532 216.385 151.784C215.821 152.036 215.155 152.162 214.387 152.162ZM222.796 143.756V149.246C222.796 149.618 222.88 149.888 223.048 150.056C223.228 150.212 223.528 150.29 223.948 150.29H225.208V152H223.588C222.664 152 221.956 151.784 221.464 151.352C220.972 150.92 220.726 150.218 220.726 149.246V143.756H219.556V142.082H220.726V139.616H222.796V142.082H225.208V143.756H222.796Z" fill="#ABB6C7"/>
</g>
<defs>
<filter id="filter0_d_32_867" x="0" y="0" width="358" height="268" filterUnits="userSpaceOnUse" color-interpolation-filters="sRGB">
<feFlood flood-opacity="0" result="BackgroundImageFix"/>
<feColorMatrix in="SourceAlpha" type="matrix" values="0 0 0 0 0 0 0 0 0 0 0 0 0 0 0 0 0 0 127 0" result="hardAlpha"/>
<feOffset dy="34"/>
<feGaussianBlur stdDeviation="22"/>
<feComposite in2="hardAlpha" operator="out"/>
<feColorMatrix type="matrix" values="0 0 0 0 0.836111 0 0 0 0 0.858255 0 0 0 0 0.895833 0 0 0 0.44 0"/>
<feBlend mode="normal" in2="BackgroundImageFix" result="effect1_dropShadow_32_867"/>
<feBlend mode="normal" in="SourceGraphic" in2="effect1_dropShadow_32_867" result="shape"/>
</filter>
</defs>
</svg>
