<svg width="358" height="268" viewBox="0 0 358 268" fill="none" xmlns="http://www.w3.org/2000/svg">
<g filter="url(#filter0_d_32_889)">
<rect x="44" y="10" width="270" height="180" rx="10" fill="white"/>
<path d="M179.001 107C178.758 107 178.516 106.966 178.281 106.895C162.263 102.088 151.5 87.625 151.5 70.9038V47C151.5 45.6205 152.62 44.5025 153.998 44.5C154.14 44.5 168.307 44.395 177.5 37.5005C178.389 36.8315 179.611 36.8315 180.5 37.5005C189.726 44.4195 203.859 44.5 204 44.5C205.381 44.5 206.5 45.6183 206.5 47V70.9038C206.5 87.6225 195.74 102.088 179.723 106.895C179.488 106.966 179.245 107 179.001 107ZM156.5 49.395V70.9038C156.5 85.147 165.51 97.5028 178.999 101.883C192.49 97.5028 201.5 85.1493 201.5 70.9038V49.395C196.912 49.0728 186.941 47.7763 179 42.5543C171.059 47.7765 161.087 49.0728 156.5 49.395Z" fill="#2AA7FF"/>
<path d="M179 87C169.35 87 161.5 79.1485 161.5 69.5C161.5 59.8515 169.35 52 179 52C188.65 52 196.5 59.8515 196.5 69.5C196.5 79.1485 188.65 87 179 87ZM179 57C172.108 57 166.5 62.608 166.5 69.5C166.5 76.392 172.108 82 179 82C185.892 82 191.5 76.392 191.5 69.5C191.5 62.608 185.892 57 179 57Z" fill="#2AA7FF"/>
<path d="M184 67H181.5V64.5C181.5 63.1183 180.38 62 179 62C177.62 62 176.5 63.1183 176.5 64.5V67H174C172.619 67 171.5 68.1182 171.5 69.5C171.5 70.8818 172.619 72 174 72H176.5V74.5C176.5 75.8818 177.62 77 179 77C180.38 77 181.5 75.8818 181.5 74.5V72H184C185.38 72 186.5 70.8818 186.5 69.5C186.5 68.1182 185.38 67 184 67Z" fill="#2AA7FF"/>
<path d="M140.688 143.216C140.688 143.852 140.538 144.452 140.238 145.016C139.938 145.58 139.458 146.042 138.798 146.402C138.138 146.75 137.292 146.924 136.26 146.924H133.992V152H131.94V139.49H136.26C137.22 139.49 138.03 139.658 138.69 139.994C139.362 140.318 139.86 140.762 140.184 141.326C140.52 141.89 140.688 142.52 140.688 143.216ZM136.26 145.25C137.04 145.25 137.622 145.076 138.006 144.728C138.39 144.368 138.582 143.864 138.582 143.216C138.582 141.848 137.808 141.164 136.26 141.164H133.992V145.25H136.26ZM143.689 140.768C143.317 140.768 143.005 140.642 142.753 140.39C142.501 140.138 142.375 139.826 142.375 139.454C142.375 139.082 142.501 138.77 142.753 138.518C143.005 138.266 143.317 138.14 143.689 138.14C144.049 138.14 144.355 138.266 144.607 138.518C144.859 138.77 144.985 139.082 144.985 139.454C144.985 139.826 144.859 140.138 144.607 140.39C144.355 140.642 144.049 140.768 143.689 140.768ZM144.697 142.082V152H142.645V142.082H144.697ZM150.991 152.162C150.211 152.162 149.509 152.024 148.885 151.748C148.273 151.46 147.787 151.076 147.427 150.596C147.067 150.104 146.875 149.558 146.851 148.958H148.975C149.011 149.378 149.209 149.732 149.569 150.02C149.941 150.296 150.403 150.434 150.955 150.434C151.531 150.434 151.975 150.326 152.287 150.11C152.611 149.882 152.773 149.594 152.773 149.246C152.773 148.874 152.593 148.598 152.233 148.418C151.885 148.238 151.327 148.04 150.559 147.824C149.815 147.62 149.209 147.422 148.741 147.23C148.273 147.038 147.865 146.744 147.517 146.348C147.181 145.952 147.013 145.43 147.013 144.782C147.013 144.254 147.169 143.774 147.481 143.342C147.793 142.898 148.237 142.55 148.813 142.298C149.401 142.046 150.073 141.92 150.829 141.92C151.957 141.92 152.863 142.208 153.547 142.784C154.243 143.348 154.615 144.122 154.663 145.106H152.611C152.575 144.662 152.395 144.308 152.071 144.044C151.747 143.78 151.309 143.648 150.757 143.648C150.217 143.648 149.803 143.75 149.515 143.954C149.227 144.158 149.083 144.428 149.083 144.764C149.083 145.028 149.179 145.25 149.371 145.43C149.563 145.61 149.797 145.754 150.073 145.862C150.349 145.958 150.757 146.084 151.297 146.24C152.017 146.432 152.605 146.63 153.061 146.834C153.529 147.026 153.931 147.314 154.267 147.698C154.603 148.082 154.777 148.592 154.789 149.228C154.789 149.792 154.633 150.296 154.321 150.74C154.009 151.184 153.565 151.532 152.989 151.784C152.425 152.036 151.759 152.162 150.991 152.162ZM156.322 147.032C156.322 146.012 156.526 145.118 156.934 144.35C157.354 143.57 157.93 142.97 158.662 142.55C159.394 142.13 160.234 141.92 161.182 141.92C162.382 141.92 163.372 142.208 164.152 142.784C164.944 143.348 165.478 144.158 165.754 145.214H163.54C163.36 144.722 163.072 144.338 162.676 144.062C162.28 143.786 161.782 143.648 161.182 143.648C160.342 143.648 159.67 143.948 159.166 144.548C158.674 145.136 158.428 145.964 158.428 147.032C158.428 148.1 158.674 148.934 159.166 149.534C159.67 150.134 160.342 150.434 161.182 150.434C162.37 150.434 163.156 149.912 163.54 148.868H165.754C165.466 149.876 164.926 150.68 164.134 151.28C163.342 151.868 162.358 152.162 161.182 152.162C160.234 152.162 159.394 151.952 158.662 151.532C157.93 151.1 157.354 150.5 156.934 149.732C156.526 148.952 156.322 148.052 156.322 147.032ZM172.101 152.162C171.165 152.162 170.319 151.952 169.563 151.532C168.807 151.1 168.213 150.5 167.781 149.732C167.349 148.952 167.133 148.052 167.133 147.032C167.133 146.024 167.355 145.13 167.799 144.35C168.243 143.57 168.849 142.97 169.617 142.55C170.385 142.13 171.243 141.92 172.191 141.92C173.139 141.92 173.997 142.13 174.765 142.55C175.533 142.97 176.139 143.57 176.583 144.35C177.027 145.13 177.249 146.024 177.249 147.032C177.249 148.04 177.021 148.934 176.565 149.714C176.109 150.494 175.485 151.1 174.693 151.532C173.913 151.952 173.049 152.162 172.101 152.162ZM172.101 150.38C172.629 150.38 173.121 150.254 173.577 150.002C174.045 149.75 174.423 149.372 174.711 148.868C174.999 148.364 175.143 147.752 175.143 147.032C175.143 146.312 175.005 145.706 174.729 145.214C174.453 144.71 174.087 144.332 173.631 144.08C173.175 143.828 172.683 143.702 172.155 143.702C171.627 143.702 171.135 143.828 170.679 144.08C170.235 144.332 169.881 144.71 169.617 145.214C169.353 145.706 169.221 146.312 169.221 147.032C169.221 148.1 169.491 148.928 170.031 149.516C170.583 150.092 171.273 150.38 172.101 150.38ZM181.33 138.68V152H179.278V138.68H181.33ZM188.326 152.162C187.39 152.162 186.544 151.952 185.788 151.532C185.032 151.1 184.438 150.5 184.006 149.732C183.574 148.952 183.358 148.052 183.358 147.032C183.358 146.024 183.58 145.13 184.024 144.35C184.468 143.57 185.074 142.97 185.842 142.55C186.61 142.13 187.468 141.92 188.416 141.92C189.364 141.92 190.222 142.13 190.99 142.55C191.758 142.97 192.364 143.57 192.808 144.35C193.252 145.13 193.474 146.024 193.474 147.032C193.474 148.04 193.246 148.934 192.79 149.714C192.334 150.494 191.71 151.1 190.918 151.532C190.138 151.952 189.274 152.162 188.326 152.162ZM188.326 150.38C188.854 150.38 189.346 150.254 189.802 150.002C190.27 149.75 190.648 149.372 190.936 148.868C191.224 148.364 191.368 147.752 191.368 147.032C191.368 146.312 191.23 145.706 190.954 145.214C190.678 144.71 190.312 144.332 189.856 144.08C189.4 143.828 188.908 143.702 188.38 143.702C187.852 143.702 187.36 143.828 186.904 144.08C186.46 144.332 186.106 144.71 185.842 145.214C185.578 145.706 185.446 146.312 185.446 147.032C185.446 148.1 185.716 148.928 186.256 149.516C186.808 150.092 187.498 150.38 188.326 150.38ZM199.498 141.92C200.266 141.92 200.944 142.076 201.532 142.388C202.132 142.688 202.6 143.066 202.936 143.522V142.082H205.006V152.162C205.006 153.074 204.814 153.884 204.43 154.592C204.046 155.312 203.488 155.876 202.756 156.284C202.036 156.692 201.172 156.896 200.164 156.896C198.82 156.896 197.704 156.578 196.816 155.942C195.928 155.318 195.424 154.466 195.304 153.386H197.338C197.494 153.902 197.824 154.316 198.328 154.628C198.844 154.952 199.456 155.114 200.164 155.114C200.992 155.114 201.658 154.862 202.162 154.358C202.678 153.854 202.936 153.122 202.936 152.162V150.506C202.588 150.974 202.114 151.37 201.514 151.694C200.926 152.006 200.254 152.162 199.498 152.162C198.634 152.162 197.842 151.946 197.122 151.514C196.414 151.07 195.85 150.458 195.43 149.678C195.022 148.886 194.818 147.992 194.818 146.996C194.818 146 195.022 145.118 195.43 144.35C195.85 143.582 196.414 142.988 197.122 142.568C197.842 142.136 198.634 141.92 199.498 141.92ZM202.936 147.032C202.936 146.348 202.792 145.754 202.504 145.25C202.228 144.746 201.862 144.362 201.406 144.098C200.95 143.834 200.458 143.702 199.93 143.702C199.402 143.702 198.91 143.834 198.454 144.098C197.998 144.35 197.626 144.728 197.338 145.232C197.062 145.724 196.924 146.312 196.924 146.996C196.924 147.68 197.062 148.28 197.338 148.796C197.626 149.312 197.998 149.708 198.454 149.984C198.922 150.248 199.414 150.38 199.93 150.38C200.458 150.38 200.95 150.248 201.406 149.984C201.862 149.72 202.228 149.336 202.504 148.832C202.792 148.316 202.936 147.716 202.936 147.032ZM208.746 140.768C208.374 140.768 208.062 140.642 207.81 140.39C207.558 140.138 207.432 139.826 207.432 139.454C207.432 139.082 207.558 138.77 207.81 138.518C208.062 138.266 208.374 138.14 208.746 138.14C209.106 138.14 209.412 138.266 209.664 138.518C209.916 138.77 210.042 139.082 210.042 139.454C210.042 139.826 209.916 140.138 209.664 140.39C209.412 140.642 209.106 140.768 208.746 140.768ZM209.754 142.082V152H207.702V142.082H209.754ZM216.048 152.162C215.268 152.162 214.566 152.024 213.942 151.748C213.33 151.46 212.844 151.076 212.484 150.596C212.124 150.104 211.932 149.558 211.908 148.958H214.032C214.068 149.378 214.266 149.732 214.626 150.02C214.998 150.296 215.46 150.434 216.012 150.434C216.588 150.434 217.032 150.326 217.344 150.11C217.668 149.882 217.83 149.594 217.83 149.246C217.83 148.874 217.65 148.598 217.29 148.418C216.942 148.238 216.384 148.04 215.616 147.824C214.872 147.62 214.266 147.422 213.798 147.23C213.33 147.038 212.922 146.744 212.574 146.348C212.238 145.952 212.07 145.43 212.07 144.782C212.07 144.254 212.226 143.774 212.538 143.342C212.85 142.898 213.294 142.55 213.87 142.298C214.458 142.046 215.13 141.92 215.886 141.92C217.014 141.92 217.92 142.208 218.604 142.784C219.3 143.348 219.672 144.122 219.72 145.106H217.668C217.632 144.662 217.452 144.308 217.128 144.044C216.804 143.78 216.366 143.648 215.814 143.648C215.274 143.648 214.86 143.75 214.572 143.954C214.284 144.158 214.14 144.428 214.14 144.764C214.14 145.028 214.236 145.25 214.428 145.43C214.62 145.61 214.854 145.754 215.13 145.862C215.406 145.958 215.814 146.084 216.354 146.24C217.074 146.432 217.662 146.63 218.118 146.834C218.586 147.026 218.988 147.314 219.324 147.698C219.66 148.082 219.834 148.592 219.846 149.228C219.846 149.792 219.69 150.296 219.378 150.74C219.066 151.184 218.622 151.532 218.046 151.784C217.482 152.036 216.816 152.162 216.048 152.162ZM224.457 143.756V149.246C224.457 149.618 224.541 149.888 224.709 150.056C224.889 150.212 225.189 150.29 225.609 150.29H226.869V152H225.249C224.325 152 223.617 151.784 223.125 151.352C222.633 150.92 222.387 150.218 222.387 149.246V143.756H221.217V142.082H222.387V139.616H224.457V142.082H226.869V143.756H224.457Z" fill="#ABB6C7"/>
</g>
<defs>
<filter id="filter0_d_32_889" x="0" y="0" width="358" height="268" filterUnits="userSpaceOnUse" color-interpolation-filters="sRGB">
<feFlood flood-opacity="0" result="BackgroundImageFix"/>
<feColorMatrix in="SourceAlpha" type="matrix" values="0 0 0 0 0 0 0 0 0 0 0 0 0 0 0 0 0 0 127 0" result="hardAlpha"/>
<feOffset dy="34"/>
<feGaussianBlur stdDeviation="22"/>
<feComposite in2="hardAlpha" operator="out"/>
<feColorMatrix type="matrix" values="0 0 0 0 0.836111 0 0 0 0 0.858255 0 0 0 0 0.895833 0 0 0 0.44 0"/>
<feBlend mode="normal" in2="BackgroundImageFix" result="effect1_dropShadow_32_889"/>
<feBlend mode="normal" in="SourceGraphic" in2="effect1_dropShadow_32_889" result="shape"/>
</filter>
</defs>
</svg>
