<svg width="358" height="268" viewBox="0 0 358 268" fill="none" xmlns="http://www.w3.org/2000/svg">
<g filter="url(#filter0_d_32_906)">
<rect x="44" y="10" width="270" height="180" rx="10" fill="white"/>
<path d="M184 82H194V104.5H199V79.5C199 78.1183 197.882 77 196.5 77H181.5C180.118 77 179 78.1183 179 79.5V104.5H184V82Z" fill="#2AA7FF"/>
<path d="M206.5 57H194V62H204V102H154V62H164V57H151.5C150.118 57 149 58.1183 149 59.5V104.5C149 105.882 150.118 107 151.5 107H206.5C207.882 107 209 105.882 209 104.5V59.5C209 58.1183 207.882 57 206.5 57Z" fill="#2AA7FF"/>
<path d="M164 57H149V52H164V47H146.5C145.118 47 144 48.1183 144 49.5V59.5C144 60.8818 145.118 62 146.5 62H164V57Z" fill="#2AA7FF"/>
<path d="M211.5 47H194V52H209V57H194V62H211.5C212.882 62 214 60.8818 214 59.5V49.5C214 48.1183 212.882 47 211.5 47Z" fill="#2AA7FF"/>
<path d="M194 72H164C162.618 72 161.5 70.8817 161.5 69.5V39.5C161.5 38.1183 162.618 37 164 37H194C195.382 37 196.5 38.1183 196.5 39.5V69.5C196.5 70.8817 195.382 72 194 72ZM166.5 67H191.5V42H166.5V67Z" fill="#2AA7FF"/>
<path d="M184 52H181.5V49.5C181.5 48.1183 180.382 47 179 47C177.618 47 176.5 48.1183 176.5 49.5V52H174C172.618 52 171.5 53.1182 171.5 54.5C171.5 55.8818 172.618 57 174 57H176.5V59.5C176.5 60.8818 177.618 62 179 62C180.382 62 181.5 60.8818 181.5 59.5V57H184C185.382 57 186.5 55.8818 186.5 54.5C186.5 53.1182 185.382 52 184 52Z" fill="#2AA7FF"/>
<path d="M171.5 92H161.5C160.118 92 159 90.8818 159 89.5V84.5C159 80.3643 162.364 77 166.5 77C170.636 77 174 80.3643 174 84.5V89.5C174 90.8818 172.882 92 171.5 92ZM164 87H169V84.5C169 83.1205 167.88 82 166.5 82C165.121 82 164 83.1205 164 84.5V87Z" fill="#2AA7FF"/>
<path d="M133.131 150.344H137.361V152H131.079V139.49H133.131V150.344ZM138.393 146.996C138.393 146 138.597 145.118 139.005 144.35C139.425 143.582 139.989 142.988 140.697 142.568C141.417 142.136 142.209 141.92 143.073 141.92C143.853 141.92 144.531 142.076 145.107 142.388C145.695 142.688 146.163 143.066 146.511 143.522V142.082H148.581V152H146.511V150.524C146.163 150.992 145.689 151.382 145.089 151.694C144.489 152.006 143.805 152.162 143.037 152.162C142.185 152.162 141.405 151.946 140.697 151.514C139.989 151.07 139.425 150.458 139.005 149.678C138.597 148.886 138.393 147.992 138.393 146.996ZM146.511 147.032C146.511 146.348 146.367 145.754 146.079 145.25C145.803 144.746 145.437 144.362 144.981 144.098C144.525 143.834 144.033 143.702 143.505 143.702C142.977 143.702 142.485 143.834 142.029 144.098C141.573 144.35 141.201 144.728 140.913 145.232C140.637 145.724 140.499 146.312 140.499 146.996C140.499 147.68 140.637 148.28 140.913 148.796C141.201 149.312 141.573 149.708 142.029 149.984C142.497 150.248 142.989 150.38 143.505 150.38C144.033 150.38 144.525 150.248 144.981 149.984C145.437 149.72 145.803 149.336 146.079 148.832C146.367 148.316 146.511 147.716 146.511 147.032ZM153.328 143.558C153.676 143.078 154.15 142.688 154.75 142.388C155.362 142.076 156.04 141.92 156.784 141.92C157.66 141.92 158.452 142.13 159.16 142.55C159.868 142.97 160.426 143.57 160.834 144.35C161.242 145.118 161.446 146 161.446 146.996C161.446 147.992 161.242 148.886 160.834 149.678C160.426 150.458 159.862 151.07 159.142 151.514C158.434 151.946 157.648 152.162 156.784 152.162C156.016 152.162 155.332 152.012 154.732 151.712C154.144 151.412 153.676 151.028 153.328 150.56V152H151.276V138.68H153.328V143.558ZM159.358 146.996C159.358 146.312 159.214 145.724 158.926 145.232C158.65 144.728 158.278 144.35 157.81 144.098C157.354 143.834 156.862 143.702 156.334 143.702C155.818 143.702 155.326 143.834 154.858 144.098C154.402 144.362 154.03 144.746 153.742 145.25C153.466 145.754 153.328 146.348 153.328 147.032C153.328 147.716 153.466 148.316 153.742 148.832C154.03 149.336 154.402 149.72 154.858 149.984C155.326 150.248 155.818 150.38 156.334 150.38C156.862 150.38 157.354 150.248 157.81 149.984C158.278 149.708 158.65 149.312 158.926 148.796C159.214 148.28 159.358 147.68 159.358 146.996ZM167.777 152.162C166.841 152.162 165.995 151.952 165.239 151.532C164.483 151.1 163.889 150.5 163.457 149.732C163.025 148.952 162.809 148.052 162.809 147.032C162.809 146.024 163.031 145.13 163.475 144.35C163.919 143.57 164.525 142.97 165.293 142.55C166.061 142.13 166.919 141.92 167.867 141.92C168.815 141.92 169.673 142.13 170.441 142.55C171.209 142.97 171.815 143.57 172.259 144.35C172.703 145.13 172.925 146.024 172.925 147.032C172.925 148.04 172.697 148.934 172.241 149.714C171.785 150.494 171.161 151.1 170.369 151.532C169.589 151.952 168.725 152.162 167.777 152.162ZM167.777 150.38C168.305 150.38 168.797 150.254 169.253 150.002C169.721 149.75 170.099 149.372 170.387 148.868C170.675 148.364 170.819 147.752 170.819 147.032C170.819 146.312 170.681 145.706 170.405 145.214C170.129 144.71 169.763 144.332 169.307 144.08C168.851 143.828 168.359 143.702 167.831 143.702C167.303 143.702 166.811 143.828 166.355 144.08C165.911 144.332 165.557 144.71 165.293 145.214C165.029 145.706 164.897 146.312 164.897 147.032C164.897 148.1 165.167 148.928 165.707 149.516C166.259 150.092 166.949 150.38 167.777 150.38ZM177.006 143.522C177.306 143.018 177.702 142.628 178.194 142.352C178.698 142.064 179.292 141.92 179.976 141.92V144.044H179.454C178.65 144.044 178.038 144.248 177.618 144.656C177.21 145.064 177.006 145.772 177.006 146.78V152H174.954V142.082H177.006V143.522ZM181.178 146.996C181.178 146 181.382 145.118 181.79 144.35C182.21 143.582 182.774 142.988 183.482 142.568C184.202 142.136 184.994 141.92 185.858 141.92C186.638 141.92 187.316 142.076 187.892 142.388C188.48 142.688 188.948 143.066 189.296 143.522V142.082H191.366V152H189.296V150.524C188.948 150.992 188.474 151.382 187.874 151.694C187.274 152.006 186.59 152.162 185.822 152.162C184.97 152.162 184.19 151.946 183.482 151.514C182.774 151.07 182.21 150.458 181.79 149.678C181.382 148.886 181.178 147.992 181.178 146.996ZM189.296 147.032C189.296 146.348 189.152 145.754 188.864 145.25C188.588 144.746 188.222 144.362 187.766 144.098C187.31 143.834 186.818 143.702 186.29 143.702C185.762 143.702 185.27 143.834 184.814 144.098C184.358 144.35 183.986 144.728 183.698 145.232C183.422 145.724 183.284 146.312 183.284 146.996C183.284 147.68 183.422 148.28 183.698 148.796C183.986 149.312 184.358 149.708 184.814 149.984C185.282 150.248 185.774 150.38 186.29 150.38C186.818 150.38 187.31 150.248 187.766 149.984C188.222 149.72 188.588 149.336 188.864 148.832C189.152 148.316 189.296 147.716 189.296 147.032ZM196.455 143.756V149.246C196.455 149.618 196.539 149.888 196.707 150.056C196.887 150.212 197.187 150.29 197.607 150.29H198.867V152H197.247C196.323 152 195.615 151.784 195.123 151.352C194.631 150.92 194.385 150.218 194.385 149.246V143.756H193.215V142.082H194.385V139.616H196.455V142.082H198.867V143.756H196.455ZM205.06 152.162C204.124 152.162 203.278 151.952 202.522 151.532C201.766 151.1 201.172 150.5 200.74 149.732C200.308 148.952 200.092 148.052 200.092 147.032C200.092 146.024 200.314 145.13 200.758 144.35C201.202 143.57 201.808 142.97 202.576 142.55C203.344 142.13 204.202 141.92 205.15 141.92C206.098 141.92 206.956 142.13 207.724 142.55C208.492 142.97 209.098 143.57 209.542 144.35C209.986 145.13 210.208 146.024 210.208 147.032C210.208 148.04 209.98 148.934 209.524 149.714C209.068 150.494 208.444 151.1 207.652 151.532C206.872 151.952 206.008 152.162 205.06 152.162ZM205.06 150.38C205.588 150.38 206.08 150.254 206.536 150.002C207.004 149.75 207.382 149.372 207.67 148.868C207.958 148.364 208.102 147.752 208.102 147.032C208.102 146.312 207.964 145.706 207.688 145.214C207.412 144.71 207.046 144.332 206.59 144.08C206.134 143.828 205.642 143.702 205.114 143.702C204.586 143.702 204.094 143.828 203.638 144.08C203.194 144.332 202.84 144.71 202.576 145.214C202.312 145.706 202.18 146.312 202.18 147.032C202.18 148.1 202.45 148.928 202.99 149.516C203.542 150.092 204.232 150.38 205.06 150.38ZM214.289 143.522C214.589 143.018 214.985 142.628 215.477 142.352C215.981 142.064 216.575 141.92 217.259 141.92V144.044H216.737C215.933 144.044 215.321 144.248 214.901 144.656C214.493 145.064 214.289 145.772 214.289 146.78V152H212.237V142.082H214.289V143.522ZM228.073 142.082L221.989 156.662H219.865L221.881 151.838L217.975 142.082H220.261L223.051 149.642L225.949 142.082H228.073Z" fill="#ABB6C7"/>
</g>
<defs>
<filter id="filter0_d_32_906" x="0" y="0" width="358" height="268" filterUnits="userSpaceOnUse" color-interpolation-filters="sRGB">
<feFlood flood-opacity="0" result="BackgroundImageFix"/>
<feColorMatrix in="SourceAlpha" type="matrix" values="0 0 0 0 0 0 0 0 0 0 0 0 0 0 0 0 0 0 127 0" result="hardAlpha"/>
<feOffset dy="34"/>
<feGaussianBlur stdDeviation="22"/>
<feComposite in2="hardAlpha" operator="out"/>
<feColorMatrix type="matrix" values="0 0 0 0 0.836111 0 0 0 0 0.858255 0 0 0 0 0.895833 0 0 0 0.44 0"/>
<feBlend mode="normal" in2="BackgroundImageFix" result="effect1_dropShadow_32_906"/>
<feBlend mode="normal" in="SourceGraphic" in2="effect1_dropShadow_32_906" result="shape"/>
</filter>
</defs>
</svg>
