<svg width="358" height="268" viewBox="0 0 358 268" fill="none" xmlns="http://www.w3.org/2000/svg">
<g filter="url(#filter0_d_32_933)">
<rect x="44" y="10" width="270" height="180" rx="10" fill="white"/>
<path d="M211.906 107H146.094C144.696 107 143.562 105.881 143.562 104.5V39.5C143.562 38.1195 144.696 37 146.094 37H211.906C213.304 37 214.438 38.1195 214.438 39.5V104.5C214.438 105.881 213.304 107 211.906 107ZM148.625 102H209.375V42H148.625V102Z" fill="#2AA7FF"/>
<path d="M156.219 52C157.617 52 158.75 50.8807 158.75 49.5C158.75 48.1193 157.617 47 156.219 47C154.821 47 153.688 48.1193 153.688 49.5C153.688 50.8807 154.821 52 156.219 52Z" fill="#2AA7FF"/>
<path d="M168.708 97.0973C166.44 97.0973 164.171 96.244 162.444 94.5388C161.328 93.4365 160.547 92.0875 160.152 90.6155C158.661 90.225 157.295 89.4535 156.179 88.351C152.725 84.9403 152.725 79.3885 156.179 75.9781C158.831 73.3573 162.758 72.7323 166.039 74.1933L181.221 59.1983C179.741 55.9598 180.374 52.0816 183.025 49.4608C186.485 46.0491 192.104 46.0513 195.556 49.4608C196.67 50.5618 197.452 51.9108 197.848 53.3841C199.339 53.7746 200.705 54.5461 201.821 55.6486C205.275 59.0593 205.275 64.611 201.821 68.0215C199.166 70.64 195.241 71.2651 191.962 69.8063L176.779 84.8013C178.257 88.0398 177.625 91.9193 174.972 94.5388C173.245 96.244 170.976 97.0973 168.708 97.0973ZM162.411 78.4278C161.446 78.4278 160.488 78.7928 159.758 79.513C158.279 80.9755 158.279 83.3533 159.758 84.8158C160.464 85.5116 161.405 85.8998 162.407 85.9083C163.789 85.9205 164.905 87.0228 164.917 88.3876C164.926 89.3776 165.319 90.3065 166.024 91.0036C167.504 92.466 169.912 92.466 171.393 91.0036C172.763 89.6486 172.864 87.4988 171.625 86.0011C170.803 85.0063 170.876 83.5583 171.796 82.6515L189.785 64.8843C190.705 63.9748 192.169 63.9053 193.176 64.7158C194.695 65.9451 196.874 65.8401 198.241 64.4863C199.721 63.0238 199.721 60.6461 198.241 59.1835C197.536 58.4878 196.595 58.0996 195.593 58.0911C194.212 58.0788 193.095 56.9778 193.082 55.6143C193.074 54.6218 192.681 53.6918 191.976 52.9958C190.495 51.5333 188.087 51.5346 186.606 52.9971C185.235 54.3508 185.135 56.5018 186.375 57.9983C187.197 58.9921 187.124 60.4398 186.204 61.3478L168.215 79.1151C167.294 80.0246 165.827 80.0916 164.824 79.2836C164.114 78.7098 163.259 78.4278 162.411 78.4278Z" fill="#2AA7FF"/>
<path d="M201.781 97H191.656C190.258 97 189.125 95.8805 189.125 94.5C189.125 93.1195 190.258 92 191.656 92H201.781C203.179 92 204.312 93.1195 204.312 94.5C204.312 95.8805 203.179 97 201.781 97Z" fill="#2AA7FF"/>
<path d="M201.781 87H196.719C195.321 87 194.188 85.8805 194.188 84.5C194.188 83.1195 195.321 82 196.719 82H201.781C203.179 82 204.312 83.1195 204.312 84.5C204.312 85.8805 203.179 87 201.781 87Z" fill="#2AA7FF"/>
<path d="M157.862 145.754L161.75 152H159.446L156.62 147.464L153.974 152H151.688L155.576 145.754L151.67 139.49H153.974L156.818 144.062L159.482 139.49H161.768L157.862 145.754ZM171.616 144.62V146.348H164.218V144.62H171.616ZM181.03 152L178.15 146.996H176.584V152H174.532V139.49H178.852C179.812 139.49 180.622 139.658 181.282 139.994C181.954 140.33 182.452 140.78 182.776 141.344C183.112 141.908 183.28 142.538 183.28 143.234C183.28 144.05 183.04 144.794 182.56 145.466C182.092 146.126 181.366 146.576 180.382 146.816L183.478 152H181.03ZM176.584 145.358H178.852C179.62 145.358 180.196 145.166 180.58 144.782C180.976 144.398 181.174 143.882 181.174 143.234C181.174 142.586 180.982 142.082 180.598 141.722C180.214 141.35 179.632 141.164 178.852 141.164H176.584V145.358ZM185.221 146.996C185.221 146 185.425 145.118 185.833 144.35C186.253 143.582 186.817 142.988 187.525 142.568C188.245 142.136 189.037 141.92 189.901 141.92C190.681 141.92 191.359 142.076 191.935 142.388C192.523 142.688 192.991 143.066 193.339 143.522V142.082H195.409V152H193.339V150.524C192.991 150.992 192.517 151.382 191.917 151.694C191.317 152.006 190.633 152.162 189.865 152.162C189.013 152.162 188.233 151.946 187.525 151.514C186.817 151.07 186.253 150.458 185.833 149.678C185.425 148.886 185.221 147.992 185.221 146.996ZM193.339 147.032C193.339 146.348 193.195 145.754 192.907 145.25C192.631 144.746 192.265 144.362 191.809 144.098C191.353 143.834 190.861 143.702 190.333 143.702C189.805 143.702 189.313 143.834 188.857 144.098C188.401 144.35 188.029 144.728 187.741 145.232C187.465 145.724 187.327 146.312 187.327 146.996C187.327 147.68 187.465 148.28 187.741 148.796C188.029 149.312 188.401 149.708 188.857 149.984C189.325 150.248 189.817 150.38 190.333 150.38C190.861 150.38 191.353 150.248 191.809 149.984C192.265 149.72 192.631 149.336 192.907 148.832C193.195 148.316 193.339 147.716 193.339 147.032ZM207.032 142.082L200.948 156.662H198.824L200.84 151.838L196.934 142.082H199.22L202.01 149.642L204.908 142.082H207.032Z" fill="#ABB6C7"/>
</g>
<defs>
<filter id="filter0_d_32_933" x="0" y="0" width="358" height="268" filterUnits="userSpaceOnUse" color-interpolation-filters="sRGB">
<feFlood flood-opacity="0" result="BackgroundImageFix"/>
<feColorMatrix in="SourceAlpha" type="matrix" values="0 0 0 0 0 0 0 0 0 0 0 0 0 0 0 0 0 0 127 0" result="hardAlpha"/>
<feOffset dy="34"/>
<feGaussianBlur stdDeviation="22"/>
<feComposite in2="hardAlpha" operator="out"/>
<feColorMatrix type="matrix" values="0 0 0 0 0.836111 0 0 0 0 0.858255 0 0 0 0 0.895833 0 0 0 0.44 0"/>
<feBlend mode="normal" in2="BackgroundImageFix" result="effect1_dropShadow_32_933"/>
<feBlend mode="normal" in="SourceGraphic" in2="effect1_dropShadow_32_933" result="shape"/>
</filter>
</defs>
</svg>
